<svg width="30" height="31" viewBox="0 0 30 31" fill="none" xmlns="http://www.w3.org/2000/svg">
<g clip-path="url(#clip0_1816_319)">
<path d="M13.1371 13.3003C16.132 13.3003 18.5599 10.947 18.5599 8.044C18.5599 5.14104 16.132 2.78772 13.1371 2.78772C10.1422 2.78772 7.71436 5.14104 7.71436 8.044C7.71436 10.947 10.1422 13.3003 13.1371 13.3003Z" stroke="#232441" stroke-width="2"/>
<path d="M28.0499 13.3003H25.3385M25.3385 13.3003H22.6271M25.3385 13.3003V10.6722M25.3385 13.3003V15.9285M23.9801 23.8129C23.9828 23.5974 23.9828 23.3779 23.9828 23.1558C23.9828 19.8904 19.1267 17.2425 13.1373 17.2425C7.14784 17.2425 2.29175 19.8904 2.29175 23.1558C2.29175 26.4213 2.29175 29.0692 13.1373 29.0692C16.1618 29.0692 18.3431 28.8629 19.9157 28.4949" stroke="#232441" stroke-width="2" stroke-linecap="round"/>
</g>
<defs>
<clipPath id="clip0_1816_319">
<rect width="28.8889" height="30" fill="white" transform="translate(0.555664 0.875)"/>
</clipPath>
</defs>
</svg>
