<svg width="29" height="31" viewBox="0 0 29 31" fill="none" xmlns="http://www.w3.org/2000/svg">
<path d="M5.37929 8.34821C5.12483 8.34821 4.85697 8.24106 4.66947 8.05356C4.28108 7.66517 4.28108 7.02231 4.66947 6.63392L9.53108 1.77231C9.91947 1.38392 10.5623 1.38392 10.9507 1.77231C11.3391 2.16071 11.3391 2.80356 10.9507 3.19196L6.08911 8.05356C5.88822 8.24106 5.63375 8.34821 5.37929 8.34821Z" fill="#232441"/>
<path d="M23.6205 8.34821C23.3661 8.34821 23.1116 8.25446 22.9107 8.05356L18.0491 3.19196C17.6607 2.80356 17.6607 2.16071 18.0491 1.77231C18.4375 1.38392 19.0804 1.38392 19.4688 1.77231L24.3304 6.63392C24.7188 7.02231 24.7188 7.66517 24.3304 8.05356C24.1429 8.24106 23.875 8.34821 23.6205 8.34821Z" fill="#232441"/>
<path d="M25.4954 14C25.4016 14 25.3079 14 25.2141 14H24.9061H3.78557C2.84807 14.0134 1.77665 14.0134 0.99986 13.2366C0.383789 12.6339 0.102539 11.6964 0.102539 10.3169C0.102539 6.63391 2.7945 6.63391 4.08022 6.63391H24.9195C26.2052 6.63391 28.8972 6.63391 28.8972 10.3169C28.8972 11.7098 28.6159 12.6339 27.9999 13.2366C27.3034 13.933 26.3659 14 25.4954 14ZM4.08022 11.9911H25.2275C25.8302 12.0044 26.3927 12.0044 26.5802 11.8169C26.674 11.7232 26.8749 11.4018 26.8749 10.3169C26.8749 8.80355 26.4999 8.64284 24.9061 8.64284H4.08022C2.48647 8.64284 2.11147 8.80355 2.11147 10.3169C2.11147 11.4018 2.32575 11.7232 2.40611 11.8169C2.59361 11.9911 3.1695 11.9911 3.75879 11.9911H4.08022Z" fill="#232441"/>
<path d="M11.4998 24.3125C10.9507 24.3125 10.4954 23.8572 10.4954 23.3081V18.5536C10.4954 18.0045 10.9507 17.5491 11.4998 17.5491C12.0489 17.5491 12.5043 18.0045 12.5043 18.5536V23.3081C12.5043 23.8706 12.0489 24.3125 11.4998 24.3125Z" fill="#232441"/>
<path d="M17.661 24.3125C17.1119 24.3125 16.6565 23.8572 16.6565 23.3081V18.5536C16.6565 18.0045 17.1119 17.5491 17.661 17.5491C18.2101 17.5491 18.6654 18.0045 18.6654 18.5536V23.3081C18.6654 23.8706 18.2101 24.3125 17.661 24.3125Z" fill="#232441"/>
<path d="M18.3705 30.2723H10.2946C5.49997 30.2723 4.42854 27.4196 4.01336 24.942L2.12497 13.3571C2.03122 12.808 2.40622 12.2991 2.95533 12.2054C3.50443 12.1116 4.01336 12.4866 4.10711 13.0357L5.9955 24.6071C6.3839 26.9777 7.18747 28.2634 10.2946 28.2634H18.3705C21.8125 28.2634 22.2009 27.058 22.6428 24.7277L24.8928 13.0089C25 12.4598 25.5223 12.0982 26.0714 12.2187C26.6205 12.3259 26.9687 12.8482 26.8616 13.3973L24.6116 25.1161C24.0893 27.8348 23.2187 30.2723 18.3705 30.2723Z" fill="#232441"/>
</svg>
