<svg width="31" height="31" viewBox="0 0 31 31" fill="none" xmlns="http://www.w3.org/2000/svg">
<g clip-path="url(#clip0_1816_349)">
<path d="M4.25 28.2263H29.25C29.555 28.2263 29.8475 28.3475 30.0632 28.5632C30.2788 28.7788 30.4 29.0713 30.4 29.3763C30.4 29.6813 30.2788 29.9739 30.0632 30.1895C29.8475 30.4052 29.555 30.5263 29.25 30.5263H4.25C3.28196 30.5263 2.35357 30.1418 1.66906 29.4573C0.984552 28.7728 0.6 27.8444 0.6 26.8763V1.87634C0.6 1.57134 0.72116 1.27884 0.936827 1.06317C1.15249 0.847503 1.445 0.726343 1.75 0.726343C2.055 0.726343 2.34751 0.847503 2.56317 1.06317C2.77884 1.27884 2.9 1.57134 2.9 1.87634V26.8763C2.9 27.2344 3.04223 27.5778 3.29541 27.8309C3.54858 28.0841 3.89196 28.2263 4.25 28.2263Z" fill="#232441" stroke="#232441" stroke-width="0.2"/>
<path d="M20.0634 25.1903C19.8478 25.406 19.5553 25.5271 19.2503 25.5271C18.9452 25.5271 18.6527 25.406 18.4371 25.1903C18.2214 24.9746 18.1002 24.6821 18.1002 24.3771V15.6271C18.1002 15.3221 18.2214 15.0296 18.4371 14.814C18.6527 14.5983 18.9452 14.4771 19.2503 14.4771C19.5553 14.4771 19.8478 14.5983 20.0634 14.814C20.2791 15.0296 20.4003 15.3221 20.4003 15.6271V24.3771C20.4003 24.6821 20.2791 24.9746 20.0634 25.1903Z" fill="#232441" stroke="#232441" stroke-width="0.2"/>
<path d="M10.0632 25.1903C9.8475 25.406 9.555 25.5271 9.25 25.5271C8.945 25.5271 8.65249 25.406 8.43683 25.1903C8.22116 24.9746 8.1 24.6821 8.1 24.3771V15.6271C8.1 15.3221 8.22116 15.0296 8.43683 14.814C8.65249 14.5983 8.945 14.4771 9.25 14.4771C9.555 14.4771 9.8475 14.5983 10.0632 14.814C10.2788 15.0296 10.4 15.3221 10.4 15.6271V24.3771C10.4 24.6821 10.2788 24.9746 10.0632 25.1903Z" fill="#232441" stroke="#232441" stroke-width="0.2"/>
<path d="M25.0632 25.1895C24.8475 25.4052 24.555 25.5263 24.25 25.5263C23.945 25.5263 23.6525 25.4052 23.4368 25.1895C23.2212 24.9739 23.1 24.6813 23.1 24.3763V9.37634C23.1 9.07134 23.2212 8.77884 23.4368 8.56317C23.6525 8.3475 23.945 8.22634 24.25 8.22634C24.555 8.22634 24.8475 8.3475 25.0632 8.56317C25.2789 8.77884 25.4 9.07134 25.4 9.37634V24.3763C25.4 24.6813 25.2789 24.9739 25.0632 25.1895Z" fill="#232441" stroke="#232441" stroke-width="0.2"/>
<path d="M15.0629 25.1895C14.8473 25.4052 14.5548 25.5263 14.2498 25.5263C13.9448 25.5263 13.6523 25.4052 13.4366 25.1895C13.2209 24.9738 13.0998 24.6813 13.0998 24.3763V9.37634C13.0998 9.07134 13.2209 8.77884 13.4366 8.56317C13.6523 8.3475 13.9448 8.22634 14.2498 8.22634C14.5548 8.22634 14.8473 8.3475 15.0629 8.56317C15.2786 8.77884 15.3998 9.07134 15.3998 9.37634V24.3763C15.3998 24.6813 15.2786 24.9738 15.0629 25.1895Z" fill="#232441" stroke="#232441" stroke-width="0.2"/>
</g>
<defs>
<clipPath id="clip0_1816_349">
<rect width="30" height="30" fill="white" transform="translate(0.5 0.626343)"/>
</clipPath>
</defs>
</svg>
