<svg width="32" height="31" viewBox="0 0 32 31" fill="none" xmlns="http://www.w3.org/2000/svg">
<path d="M1.9375 29.6888C1.9375 29.6888 2.58156 26.2942 2.875 25.0013C3.07 24.1417 3.8125 22.1888 11.3125 21.2513C11.3125 21.2513 12.25 24.0638 16 24.0638C19.75 24.0638 20.6875 21.2513 20.6875 21.2513C28.1875 22.1888 28.93 24.0835 29.125 25.0013C29.4006 26.2988 30.0625 29.6888 30.0625 29.6888M10.375 10.9388C10.375 14.5632 13.1875 17.5013 16 17.5013C18.8125 17.5013 21.625 14.5632 21.625 10.9388M8.5 28.7513V29.6888M23.5 28.7513V29.6888M6.625 8.12634H22.5625C22.5625 4.50197 19.6244 1.56384 16 1.56384C12.3756 1.56384 9.4375 4.50197 9.4375 8.12634" stroke="#232441" stroke-width="2" stroke-linecap="round" stroke-linejoin="round"/>
</svg>
