<svg width="30" height="31" viewBox="0 0 30 31" fill="none" xmlns="http://www.w3.org/2000/svg">
<g clip-path="url(#clip0_1816_328)">
<path d="M28.7585 14.6899L25.3649 18.0835L19.8376 12.5562L19.6962 12.4148L19.5548 12.5562L11.9298 20.1812L11.7884 20.3226L11.9297 20.464L17.4571 25.9926L14.0635 29.3862L14.0635 29.3862C13.7338 29.7159 13.3425 29.9774 12.9117 30.1559C12.481 30.3343 12.0193 30.4262 11.5531 30.4262C11.0868 30.4262 10.6251 30.3343 10.1944 30.1559C9.76365 29.9774 9.37227 29.7159 9.04261 29.3862L9.0426 29.3862L6.0251 26.3687L5.88368 26.2273L5.74226 26.3687L3.38368 28.7273L1.89902 27.2426L4.2576 24.884L4.39899 24.7426L4.25763 24.6012L1.24013 21.5825L1.09868 21.7239L1.24012 21.5825C0.574602 20.9167 0.200732 20.0139 0.200732 19.0726C0.200732 18.1313 0.574602 17.2285 1.24012 16.5627L4.6337 13.1692L10.1623 18.6965L10.3037 18.8379L10.4451 18.6965L18.0701 11.0715L18.2115 10.9301L18.0701 10.7887L12.5428 5.26012L15.9364 1.86652L15.9364 1.86651C16.266 1.5368 16.6574 1.27525 17.0881 1.09681C17.5189 0.918369 17.9806 0.826526 18.4468 0.826526C18.913 0.826526 19.3747 0.918369 19.8055 1.09681C20.2362 1.27525 20.6276 1.5368 20.9572 1.86651L20.9573 1.86652L23.9748 4.88402L24.1162 5.02544L24.2576 4.88402L26.6162 2.52544L28.1008 4.0101L25.7423 6.36868L25.6009 6.51007L25.7422 6.65149L28.4185 9.32885H28.4172L28.7585 9.67025C29.424 10.336 29.7979 11.2388 29.7979 12.1801C29.7979 13.1214 29.424 14.0242 28.7585 14.6899C28.7585 14.6899 28.7585 14.6899 28.7585 14.6899ZM10.9978 28.2162L11.0744 28.0314L10.9978 28.2162C11.1738 28.2891 11.3625 28.3267 11.5531 28.3267C11.7436 28.3267 11.9323 28.2891 12.1083 28.2162L12.0317 28.0314C12.1835 27.9685 12.3213 27.8763 12.4374 27.7601L12.5789 27.9015L12.5789 27.9014L14.3464 26.134L14.4878 25.9926L14.3464 25.8512L4.7751 16.2799L4.63368 16.1385L4.49226 16.2799L2.72476 18.0474L2.72474 18.0475C2.45291 18.3194 2.3002 18.6881 2.3002 19.0726C2.3002 19.4571 2.45291 19.8258 2.72474 20.0977L2.72475 20.0978L10.5272 27.9014C10.5272 27.9015 10.5272 27.9015 10.5272 27.9015C10.6619 28.0363 10.8218 28.1432 10.9978 28.2162ZM27.2752 13.204L27.2752 13.2039C27.5466 12.932 27.699 12.5636 27.699 12.1795C27.699 11.7953 27.5466 11.4269 27.2752 11.155L27.2751 11.1549L19.4727 3.35126C19.338 3.21644 19.1781 3.10949 19.0021 3.03652C18.826 2.96355 18.6374 2.92599 18.4468 2.92599C18.2563 2.92599 18.0676 2.96355 17.8915 3.03652C17.7155 3.10948 17.5557 3.2164 17.421 3.35118C17.421 3.3512 17.421 3.35123 17.4209 3.35126L15.6535 5.11868L15.5121 5.2601L15.6535 5.40152L25.2248 14.9728L25.3662 15.1142L25.5077 14.9727L27.2752 13.204Z" fill="#232441" stroke="#232441" stroke-width="0.4"/>
</g>
<defs>
<clipPath id="clip0_1816_328">
<rect width="30" height="30" fill="white" transform="translate(0 0.626343)"/>
</clipPath>
</defs>
</svg>
