<svg width="29" height="28" viewBox="0 0 29 28" fill="none" xmlns="http://www.w3.org/2000/svg">
<g clip-path="url(#clip0_808_1033)">
<path fill-rule="evenodd" clip-rule="evenodd" d="M19.8138 17.9822C19.2652 15.9434 20.883 14.9323 22.6708 14.9333C27.5055 14.9375 26.9652 14.6191 26.9621 16.7378C26.958 20.2087 27.49 19.769 24.019 19.769C21.9014 19.769 20.3147 19.8458 19.8138 17.9822ZM25.7508 21.0041C25.7529 26.3293 26.3243 25.7994 21.5301 25.7994C19.5628 25.7994 4.12759 25.9104 3.55099 25.6947C2.46107 25.285 2.82403 23.0824 2.82403 21.8193V12.797C2.82403 7.9074 1.77974 8.90295 12.5079 8.90295C15.5153 8.90295 18.5227 8.90295 21.5301 8.90295C26.456 8.90295 25.8214 8.61258 25.7477 13.7003C24.132 13.8953 22.1305 13.4358 20.6911 14.0332C17.9378 15.1739 17.692 19.2878 20.6372 20.6401C22.0663 21.2955 24.1569 20.7698 25.7508 21.0041ZM18.1877 7.69688C18.4128 7.44592 21.5851 5.59999 22.0486 5.4351L23.29 7.69481L18.1877 7.69688ZM13.4122 7.69792C13.604 7.47392 20.2483 3.5591 20.8488 3.33406L21.3943 4.36799C20.2545 5.08458 18.9583 5.81051 17.7957 6.46903C15.1181 7.98621 16.2868 7.68029 13.4122 7.69792ZM8.60966 7.67199C9.29514 7.14103 10.5873 6.48562 11.4169 6.00236C12.3637 5.45169 13.322 4.88651 14.3061 4.32755C15.2913 3.76858 16.1665 3.22932 17.1839 2.6434C18.0467 2.14666 19.4031 1.09614 20.1788 2.21925C19.8574 2.57495 15.1948 5.18725 14.7883 5.43303C13.9017 5.97021 13.0098 6.46695 12.1034 6.99895C10.8507 7.73421 10.6671 7.87732 8.60966 7.67199ZM26.9569 20.8932C28.4534 19.9184 28.1671 19.4797 28.1671 17.36C28.1671 15.3782 28.4471 14.6461 26.96 13.8144C26.9652 12.0338 27.3126 9.45881 26.2414 8.39792C25.2562 7.42103 25.0664 8.31703 24.4369 7.19288C23.5565 5.61658 21.9885 2.75229 21.1433 1.46429C20.7959 0.934361 20.1177 0.457324 19.148 0.466657C18.308 0.473916 17.6122 1.01836 17.0314 1.34918C14.4544 2.81347 11.8836 4.29021 9.35944 5.81155C8.71336 6.20044 8.10773 6.54992 7.45855 6.9191C6.52833 7.44799 6.51173 7.70725 5.2507 7.69688C3.83099 7.68547 1.74655 7.69584 1.62625 10.0966C1.56507 11.3037 1.54744 24.5477 1.69988 25.171C1.8824 25.9176 2.46418 26.5367 3.07396 26.795C3.97618 27.1776 7.6224 27.0044 8.87825 27.0044C12.9227 27.0044 16.9671 27.0044 21.0116 27.0044C22.8503 27.0044 25.2199 27.3404 26.2787 26.2567C27.294 25.2187 26.9797 22.5867 26.9569 20.8932Z" fill="#232441"/>
<path fill-rule="evenodd" clip-rule="evenodd" d="M21.8744 16.1985C20.2452 16.6227 20.9183 18.872 22.4458 18.5059C23.851 18.1689 23.3968 15.8024 21.8744 16.1985Z" fill="#232441"/>
</g>
<defs>
<clipPath id="clip0_808_1033">
<rect width="28" height="28" fill="white" transform="translate(0.5)"/>
</clipPath>
</defs>
</svg>
