<svg width="15" height="17" viewBox="0 0 15 17" fill="none" xmlns="http://www.w3.org/2000/svg">
<path d="M0.57045 4.78983C1.03788 4.56416 1.60587 4.76228 1.83154 5.22971L3.61492 8.92359C3.68987 9.07884 3.87754 9.1443 4.03278 9.06934C4.19141 8.99276 4.25774 8.8026 4.1836 8.64904L1.57819 3.25249C1.35089 2.78169 1.54726 2.2187 2.01807 1.9914C2.4855 1.76573 3.05187 1.96047 3.27917 2.43128L5.61002 7.25914C5.68497 7.41439 5.87432 7.47903 6.02788 7.4049C6.18651 7.32831 6.25365 7.13984 6.1787 6.98459L3.57329 1.58804C3.34762 1.12061 3.54236 0.55425 4.01317 0.326949C4.48398 0.099648 5.04859 0.299397 5.27427 0.766828L7.87967 6.16337C7.95463 6.31862 8.14398 6.38326 8.3026 6.30668C8.45785 6.23173 8.52331 6.04407 8.44835 5.88882L6.39205 1.62963C6.16475 1.15883 6.3645 0.594208 6.83193 0.368536C7.30274 0.141235 7.86573 0.33761 8.09303 0.808415L11.5205 7.90762L11.9104 5.77589C11.9979 5.08652 12.5789 4.58753 13.2115 4.65664C13.8458 4.72913 14.2891 5.34121 14.2057 6.03064C14.2057 6.03064 13.7052 9.73058 13.4939 11.3142C13.285 12.8986 12.4571 14.4594 10.0626 15.6154C6.09874 17.5292 4.26482 14.64 3.82325 13.7254L0.120446 6.05581C-0.0992912 5.58344 0.0996437 5.01713 0.57045 4.78983Z" fill="white"/>
</svg>
