<svg width="27" height="27" viewBox="0 0 27 27" fill="none" xmlns="http://www.w3.org/2000/svg">
<path d="M14.6877 0.860803C14.5345 0.700322 14.3504 0.57258 14.1464 0.485303C13.9424 0.398026 13.7229 0.353027 13.501 0.353027C13.2791 0.353027 13.0596 0.398026 12.8556 0.485303C12.6516 0.57258 12.4675 0.700322 12.3143 0.860803L0.829902 12.8921C0.608058 13.1243 0.459279 13.4166 0.402016 13.7327C0.344752 14.0487 0.381524 14.3747 0.507771 14.67C0.634018 14.9654 0.844186 15.2172 1.11221 15.3942C1.38023 15.5712 1.69432 15.6656 2.01553 15.6658H4.7499V24.4158C4.7499 24.996 4.98037 25.5524 5.39061 25.9626C5.80084 26.3728 6.35724 26.6033 6.9374 26.6033H9.1249C9.70506 26.6033 10.2615 26.3728 10.6717 25.9626C11.0819 25.5524 11.3124 24.996 11.3124 24.4158V22.2283C11.3124 21.6481 11.5429 21.0917 11.9531 20.6815C12.3633 20.2713 12.9197 20.0408 13.4999 20.0408C14.0801 20.0408 14.6365 20.2713 15.0467 20.6815C15.4569 21.0917 15.6874 21.6481 15.6874 22.2283V24.4158C15.6874 24.996 15.9179 25.5524 16.3281 25.9626C16.7383 26.3728 17.2947 26.6033 17.8749 26.6033H20.0624C20.6426 26.6033 21.199 26.3728 21.6092 25.9626C22.0194 25.5524 22.2499 24.996 22.2499 24.4158V15.6658H24.9843C25.3057 15.6661 25.6201 15.5719 25.8884 15.3951C26.1568 15.2182 26.3673 14.9665 26.4938 14.671C26.6203 14.3756 26.6573 14.0495 26.6001 13.7332C26.5429 13.417 26.3941 13.1245 26.1721 12.8921L14.6877 0.860803Z" fill="#232441"/>
</svg>
